<svg width="176" height="41" viewBox="0 0 176 41" fill="none" xmlns="http://www.w3.org/2000/svg">
<path d="M21.376 20.4218C21.376 30.4905 29.5143 38.6528 39.5534 38.6528C49.5925 38.6528 57.7307 30.4905 57.7307 20.4218C57.7307 10.3532 49.5925 2.19092 39.5534 2.19092C29.5143 2.19092 21.376 10.3532 21.376 20.4218Z" fill="#5185EA"/>
<path d="M24.7001 3.47562C21.9028 2.41848 18.8887 2.06956 15.9249 2.45976C12.961 2.84995 10.1388 3.96725 7.70834 5.71264C5.27786 7.45804 3.31407 9.77768 1.99092 12.4661C0.667773 15.1545 0.0261184 18.1287 0.122791 21.1252C0.219463 24.1218 1.05148 27.0481 2.54513 29.6452C4.03879 32.2421 6.148 34.4295 8.68591 36.0138C11.2238 37.5979 14.1121 38.5298 17.095 38.7271C20.0778 38.9243 23.0631 38.3807 25.7862 37.1444L19.3282 22.8345C18.9512 23.0057 18.5381 23.0809 18.1251 23.0536C17.7122 23.0263 17.3125 22.8974 16.9613 22.678C16.6099 22.4587 16.318 22.1559 16.1112 21.7965C15.9045 21.437 15.7893 21.032 15.7759 20.6172C15.7625 20.2025 15.8514 19.7908 16.0345 19.4186C16.2176 19.0465 16.4894 18.7256 16.8258 18.4839C17.1624 18.2423 17.5529 18.0877 17.9633 18.0337C18.3735 17.9796 18.7907 18.0279 19.1778 18.1742L24.7001 3.47562Z" fill="#BCFC4D"/>
<path d="M66.4777 3.2324C67.9423 3.2324 69.2271 3.51951 70.3322 4.09371C71.4506 4.66791 72.3094 5.48916 72.9085 6.55746C73.521 7.6124 73.8272 8.84095 73.8272 10.2431C73.8272 11.6452 73.521 12.8738 72.9085 13.9287C72.3094 14.9703 71.4506 15.7782 70.3322 16.3524C69.2271 16.9266 67.9423 17.2137 66.4777 17.2137H61.6046V3.2324H66.4777ZM66.3778 14.8301C67.8425 14.8301 68.9741 14.4295 69.773 13.6282C70.5719 12.827 70.9713 11.6986 70.9713 10.2431C70.9713 8.78754 70.5719 7.65246 69.773 6.83789C68.9741 6.00996 67.8425 5.596 66.3778 5.596H64.4006V14.8301H66.3778ZM75.2012 11.6252C75.2012 10.5035 75.4209 9.50864 75.8603 8.64064C76.3129 7.77265 76.9188 7.10497 77.6777 6.63759C78.4499 6.1702 79.3087 5.93652 80.254 5.93652C81.0796 5.93652 81.7986 6.10344 82.411 6.43728C83.0368 6.77112 83.5361 7.19176 83.9089 7.69921V6.11679H86.7249V17.2137H83.9089V15.5912C83.5494 16.112 83.0501 16.546 82.411 16.8932C81.7852 17.227 81.0596 17.394 80.2341 17.394C79.3021 17.394 78.4499 17.1536 77.6777 16.6729C76.9188 16.1922 76.3129 15.5178 75.8603 14.6498C75.4209 13.7685 75.2012 12.7602 75.2012 11.6252ZM83.9089 11.6653C83.9089 10.9842 83.7758 10.4033 83.5094 9.92259C83.2431 9.42851 82.8836 9.0546 82.431 8.80088C81.9783 8.53381 81.4923 8.40027 80.973 8.40027C80.4538 8.40027 79.9744 8.52714 79.5351 8.78085C79.0957 9.03457 78.7362 9.40848 78.4566 9.90256C78.1903 10.3833 78.0572 10.9575 78.0572 11.6252C78.0572 12.2929 78.1903 12.8804 78.4566 13.3879C78.7362 13.882 79.0957 14.2625 79.5351 14.5296C79.9877 14.7967 80.467 14.9302 80.973 14.9302C81.4923 14.9302 81.9783 14.8034 82.431 14.5496C82.8836 14.2826 83.2431 13.9087 83.5094 13.4279C83.7758 12.9339 83.9089 12.3463 83.9089 11.6653ZM92.2517 7.71924C92.6112 7.21179 93.1038 6.79115 93.7296 6.45731C94.3687 6.11011 95.0944 5.93652 95.9065 5.93652C96.8519 5.93652 97.7039 6.1702 98.4629 6.63759C99.2351 7.10497 99.8409 7.77265 100.28 8.64064C100.733 9.49527 100.959 10.4901 100.959 11.6252C100.959 12.7602 100.733 13.7685 100.28 14.6498C99.8409 15.5178 99.2351 16.1922 98.4629 16.6729C97.7039 17.1536 96.8519 17.394 95.9065 17.394C95.0944 17.394 94.3754 17.227 93.7496 16.8932C93.1372 16.5594 92.6379 16.1388 92.2517 15.6313V22.5018H89.4557V6.11679H92.2517V7.71924ZM98.1034 11.6252C98.1034 10.9575 97.9636 10.3833 97.684 9.90256C97.4176 9.40848 97.0581 9.03457 96.6055 8.78085C96.1661 8.52714 95.6868 8.40027 95.1676 8.40027C94.6616 8.40027 94.1822 8.53381 93.7296 8.80088C93.2902 9.0546 92.9307 9.42851 92.6511 9.92259C92.3848 10.4167 92.2517 10.9976 92.2517 11.6653C92.2517 12.3329 92.3848 12.9138 92.6511 13.4079C92.9307 13.902 93.2902 14.2826 93.7296 14.5496C94.1822 14.8034 94.6616 14.9302 95.1676 14.9302C95.6868 14.9302 96.1661 14.7967 96.6055 14.5296C97.0581 14.2625 97.4176 13.882 97.684 13.3879C97.9636 12.8938 98.1034 12.3062 98.1034 11.6252ZM105.787 7.71924C106.147 7.21179 106.639 6.79115 107.265 6.45731C107.904 6.11011 108.63 5.93652 109.442 5.93652C110.387 5.93652 111.239 6.1702 111.998 6.63759C112.771 7.10497 113.376 7.77265 113.816 8.64064C114.268 9.49527 114.495 10.4901 114.495 11.6252C114.495 12.7602 114.268 13.7685 113.816 14.6498C113.376 15.5178 112.771 16.1922 111.998 16.6729C111.239 17.1536 110.387 17.394 109.442 17.394C108.63 17.394 107.911 17.227 107.285 16.8932C106.673 16.5594 106.173 16.1388 105.787 15.6313V22.5018H102.991V6.11679H105.787V7.71924ZM111.639 11.6252C111.639 10.9575 111.499 10.3833 111.219 9.90256C110.953 9.40848 110.594 9.03457 110.141 8.78085C109.702 8.52714 109.222 8.40027 108.703 8.40027C108.197 8.40027 107.718 8.53381 107.265 8.80088C106.826 9.0546 106.466 9.42851 106.187 9.92259C105.92 10.4167 105.787 10.9976 105.787 11.6653C105.787 12.3329 105.92 12.9138 106.187 13.4079C106.466 13.902 106.826 14.2826 107.265 14.5496C107.718 14.8034 108.197 14.9302 108.703 14.9302C109.222 14.9302 109.702 14.7967 110.141 14.5296C110.594 14.2625 110.953 13.882 111.219 13.3879C111.499 12.8938 111.639 12.3062 111.639 11.6252ZM119.323 2.39111V17.2137H116.527V2.39111H119.323ZM132.37 11.4249C132.37 11.8255 132.344 12.186 132.291 12.5065H124.202C124.269 13.3078 124.548 13.9354 125.041 14.3894C125.533 14.8434 126.139 15.0704 126.858 15.0704C127.897 15.0704 128.636 14.6231 129.075 13.7284H132.091C131.771 14.7967 131.159 15.6781 130.253 16.3724C129.348 17.0535 128.236 17.394 126.918 17.394C125.853 17.394 124.894 17.1603 124.042 16.6929C123.204 16.2122 122.544 15.5378 122.065 14.6698C121.599 13.8018 121.366 12.8003 121.366 11.6653C121.366 10.5168 121.599 9.50864 122.065 8.64064C122.531 7.77265 123.184 7.10497 124.022 6.63759C124.861 6.1702 125.826 5.93652 126.918 5.93652C127.97 5.93652 128.909 6.16354 129.734 6.61756C130.573 7.07158 131.219 7.71924 131.671 8.56052C132.138 9.38845 132.37 10.3432 132.37 11.4249ZM129.475 10.6237C129.461 9.90256 129.202 9.32836 128.696 8.90104C128.19 8.46037 127.571 8.24003 126.838 8.24003C126.146 8.24003 125.56 8.45368 125.081 8.88101C124.615 9.29497 124.329 9.87585 124.222 10.6237H129.475ZM66.4178 37.8539C65.4459 37.8539 64.5671 37.687 63.7815 37.3532C63.0093 37.0194 62.3968 36.5386 61.9441 35.911C61.4915 35.2833 61.2584 34.5422 61.2451 33.6876H64.2409C64.2808 34.2617 64.4805 34.7159 64.84 35.0496C65.2128 35.3834 65.7188 35.5504 66.3579 35.5504C67.0102 35.5504 67.5229 35.3969 67.8957 35.0897C68.2684 34.7692 68.4549 34.3553 68.4549 33.8478C68.4549 33.4339 68.3283 33.0934 68.0754 32.8263C67.8225 32.5591 67.5029 32.3523 67.1168 32.2053C66.744 32.0451 66.2248 31.8715 65.559 31.6845C64.6536 31.4174 63.9146 31.157 63.3421 30.9033C62.7829 30.6362 62.2969 30.2423 61.8842 29.7215C61.4848 29.1874 61.2851 28.4796 61.2851 27.5983C61.2851 26.7703 61.4915 26.0492 61.9042 25.435C62.3169 24.8208 62.8961 24.3533 63.6417 24.0329C64.3874 23.6991 65.2394 23.5321 66.1981 23.5321C67.636 23.5321 68.8011 23.8859 69.6931 24.5937C70.5985 25.288 71.0978 26.263 71.191 27.5182H68.1154C68.0887 27.0374 67.8824 26.6436 67.4962 26.3364C67.1235 26.0159 66.6242 25.8556 65.9984 25.8556C65.4524 25.8556 65.013 25.9958 64.6802 26.2763C64.3607 26.5567 64.2009 26.964 64.2009 27.4981C64.2009 27.872 64.3207 28.1859 64.5604 28.4396C64.8133 28.6799 65.1196 28.8802 65.4791 29.0405C65.8519 29.1874 66.3711 29.361 67.0369 29.5613C67.9423 29.8284 68.6813 30.0954 69.2537 30.3625C69.8262 30.6296 70.3189 31.0302 70.7316 31.5643C71.1443 32.0984 71.3508 32.7995 71.3508 33.6675C71.3508 34.4154 71.1578 35.1097 70.7716 35.7507C70.3854 36.3917 69.8197 36.9058 69.074 37.2931C68.3283 37.6669 67.443 37.8539 66.4178 37.8539ZM80.006 26.4565C80.8448 26.4565 81.5904 26.6436 82.2428 27.0174C82.8951 27.378 83.4011 27.9188 83.7606 28.6399C84.1334 29.3477 84.3198 30.2023 84.3198 31.2038V37.7137H81.5238V31.5844C81.5238 30.703 81.3041 30.0287 80.8647 29.5613C80.4254 29.0806 79.8262 28.8402 79.0673 28.8402C78.2951 28.8402 77.6825 29.0806 77.2299 29.5613C76.7905 30.0287 76.5708 30.703 76.5708 31.5844V37.7137H73.7748V22.8911H76.5708V27.9989C76.9303 27.5182 77.4097 27.1443 78.0088 26.8772C78.6079 26.5968 79.2737 26.4565 80.006 26.4565ZM88.3967 25.2948C87.9041 25.2948 87.4913 25.1413 87.1585 24.8341C86.8389 24.5136 86.6791 24.1197 86.6791 23.6523C86.6791 23.1848 86.8389 22.7977 87.1585 22.4905C87.4913 22.17 87.9041 22.0098 88.3967 22.0098C88.8893 22.0098 89.2954 22.17 89.615 22.4905C89.9478 22.7977 90.1143 23.1848 90.1143 23.6523C90.1143 24.1197 89.9478 24.5136 89.615 24.8341C89.2954 25.1413 88.8893 25.2948 88.3967 25.2948ZM89.7747 26.6168V37.7137H86.9787V26.6168H89.7747ZM97.61 28.9203H95.6728V37.7137H92.8368V28.9203H91.5786V26.6168H92.8368V26.0559C92.8368 24.6939 93.223 23.6923 93.9952 23.0514C94.7673 22.4104 95.9324 22.1099 97.4902 22.15V24.5136C96.8112 24.5003 96.3385 24.6137 96.0722 24.8541C95.8059 25.0945 95.6728 25.5284 95.6728 26.1561V26.6168H97.61V28.9203ZM102.677 28.9203V34.2885C102.677 34.6623 102.764 34.9362 102.937 35.1097C103.123 35.27 103.43 35.3501 103.856 35.3501H105.154V37.7137H103.396C101.04 37.7137 99.8614 36.5652 99.8614 34.2685V28.9203H98.5432V26.6168H99.8614V23.8726H102.677V26.6168H105.154V28.9203H102.677Z" fill="white"/>
<mask id="mask0_1188_415" style="mask-type:luminance" maskUnits="userSpaceOnUse" x="111" y="19" width="19" height="22">
<path d="M121.966 19.874L111.873 24.8223L119.753 40.99L129.846 36.0418L121.966 19.874Z" fill="white"/>
</mask>
<g mask="url(#mask0_1188_415)">
<path d="M126.47 30.5425L123.124 32.183L126.978 35.614C127.246 35.8515 127.268 36.254 127.049 36.5177L125.829 37.9546C125.601 38.2226 125.207 38.2372 124.943 38.0087L121.283 34.7512L119.921 38.9062C119.74 39.4598 119.008 39.4603 118.768 38.9683L112.155 25.4001C111.903 24.8823 112.408 24.3218 112.912 24.526L126.385 29.3658C126.919 29.5414 126.959 30.3027 126.47 30.5425Z" fill="white"/>
</g>
</svg>
