<svg width="57" height="39" viewBox="0 0 57 39" fill="none" xmlns="http://www.w3.org/2000/svg">
<g clip-path="url(#clip0_1_11)">
<path d="M21.2303 19.4256C21.2303 29.0032 29.3131 36.7673 39.2837 36.7673C49.2544 36.7673 57.3371 29.0032 57.3371 19.4256C57.3371 9.84817 49.2544 2.08405 39.2837 2.08405C29.3131 2.08405 21.2303 9.84817 21.2303 19.4256Z" fill="#5185EA"/>
<path d="M24.5317 3.30608C21.7535 2.30051 18.7599 1.96861 15.8163 2.33977C12.8726 2.71093 10.0697 3.77373 7.65579 5.43398C5.24188 7.09424 3.29148 9.30072 1.97735 11.858C0.663229 14.4153 0.0259494 17.2444 0.121963 20.0947C0.217976 22.9451 1.04432 25.7287 2.52779 28.1991C4.01126 30.6693 6.10609 32.75 8.6267 34.257C11.1473 35.7639 14.0159 36.6503 16.9785 36.838C19.9409 37.0256 22.9059 36.5085 25.6104 35.3325L19.1964 21.7206C18.822 21.8835 18.4117 21.955 18.0015 21.929C17.5914 21.9031 17.1945 21.7805 16.8457 21.5718C16.4967 21.3632 16.2068 21.0751 16.0014 20.7333C15.7961 20.3913 15.6817 20.0061 15.6683 19.6115C15.655 19.217 15.7433 18.8254 15.9252 18.4714C16.107 18.1174 16.377 17.8122 16.7111 17.5822C17.0454 17.3524 17.4332 17.2054 17.8408 17.154C18.2482 17.1025 18.6626 17.1485 19.0471 17.2877L24.5317 3.30608Z" fill="#BCFC4D"/>
</g>
<defs>
<clipPath id="clip0_1_11">
<rect width="57" height="39" fill="white"/>
</clipPath>
</defs>
</svg>
